<?xml version="1.0" encoding="utf-8"?>
<!-- Generator: Adobe Illustrator 25.1.0, SVG Export Plug-In . SVG Version: 6.00 Build 0)  -->
<svg version="1.1" id="Layer_1" xmlns="http://www.w3.org/2000/svg"
	xmlns:xlink="http://www.w3.org/1999/xlink" x="0px" y="0px"
	viewBox="0 0 728.7 584" style="enable-background:new 0 0 728.7 584;" xml:space="preserve">
<g>
	<path style="fill:#FFFFFF;" d="M722,487.6c-0.9,0.3-1.8,0.7-2.8,1c-2.7-2.5-5-5.7-6.8-9.3c-2.2-4.4-3.9-10.8-4.5-15.7
		c-1.4-12.5,0.3-24.9,5.1-36.5c2.3-5.6,5.8-11.5,9.9-15.8c4-4.2-1.3-10.4-5.6-8.3c0-1.1-0.5-2.2-1.5-3.2
		c-5.1-5.1-9.4-12.5-11.9-19.1c-3.1-8-5.1-17-5.9-24.8c-0.4-4.6-0.6-9.1-0.4-13.7c0.2-4.6,0.5-8.4,1.3-12.5
		c0.8-4.2,1.9-8.3,3.4-12.3c0.8-2,0.9-2.5,1.9-4.4c0.9-1.8,1.8-3.5,2.9-5.2c1.5-2.3,1.8-2.8,3.5-4.7c1.3-1.4,2.7-2.8,4.2-4
		c0.2-0.2,0.6-0.4,0.6-0.5c0.5-0.4,1-0.7,1.5-1c0.8-0.5,1.6-1,2.4-1.4c0.4-0.2,0.8-0.4,1.3-0.6c0.2-0.1,0.5-0.2,0.7-0.3
		c0.1,0,0.1-0.1,0.2-0.1c1-0.4,2.1-0.8,3.2-1.1c3.1-0.9,4-3.7,3.4-6.1c2-3.2-0.7-8.9-5.7-7.8c-1.3,0.3-2.7,0.6-4,0.8
		c-3.1-2.9-5.6-6.4-7.8-10.4c-1.7-3.2-2.7-5.6-3.8-9.2c-1.1-3.5-2-7.2-2.6-10.8c-2.3-13.5-1.3-28.6,2.2-41.9
		c0.9-3.3,1.9-6.6,3.3-9.8c0.1-0.2,0.7-1.5,0.8-1.8c0.3-0.6,0.6-1.3,1-1.9c0.7-1.3,1.5-2.5,2.3-3.7c1.1-1.6,0.8-3.7-0.2-5.3
		c1.8-1.8,2.1-5.4,0-7.2c-9.1-7.7-14.4-17.8-16.8-28.7c0.3-0.8,0.2-1.8-0.5-2.4c-3-16.8,0.6-35.4,7.8-50.7
		c3.7-7.9,8.4-15.2,14.3-21.7c1.3-1.3,1.9-3.4,1.4-5.1c0,0,0,0,0,0c0,0,0,0,0,0c0.7-2.5-0.8-5.7-3.6-6.3
		c-21.9-4.3-43.9-8.5-65.8-12.6c-26.8-5-53.5-9.9-80.3-14.7c-28.2-5-56.3-9.9-84.6-14.7c-26.1-4.4-52.3-8.6-78.5-12.6
		c-20.9-3.1-41.8-6.2-62.8-8.5c-0.6-0.1-1.2-0.1-1.8-0.2C341.7,0.2,341,0,340.2,0c-0.4,0-0.9,0.1-1.3,0.1c-0.3,0-0.6-0.1-0.9-0.1
		c-0.7-0.1-1.3,0.1-1.9,0.3c-32.7,2.4-65.4,5.3-98,8.8c-30.3,3.3-60.6,7-90.8,11.4c-15.7,2.2-31.4,4.6-47,7.1
		c-1.5,0.2-2.7,1.5-3.3,2.9c-9.9,1.5-19.4,5-27.5,11.1c-8,6-14.5,13.9-19.1,22.9c-9,17.8-11.2,39.4-5.6,58.6
		c2.4,8.2,6.3,15.9,11.6,22.5c-2.3-0.3-4.6-0.5-6.9-0.8c-5.1-0.5-10.1,0-15.1,1.6c-15.5,5-23.4,18.9-28.2,33.5
		c-7.5,23.1-8.5,54,14.3,68.9c3.8,2.5,8.1,4.3,12.5,5.6c-16,10.9-26.4,29.4-30.7,48c-5.5,24.2-2,51,12.2,71.6
		c6.8,9.8,15.7,18,26,23.9c-9.7,3.5-18.2,9.9-23.5,19.4c-7.5,13.3-7.9,29.9-2.8,44.1c3.1,8.7,8,16.6,14.5,23.2
		c0.4,0.4,0.7,0.6,1.1,0.9c0.4,1.5,1.4,2.9,3.4,3.5c51.2,16.6,103.1,30.7,155.3,43.3c53.7,13,107.8,24.3,162.1,34.6
		c27.2,5.2,54.4,10.1,81.7,14.9c0.3,0.2,0.7,0.2,1,0.2c3.2,0.6,6.4,1.2,9.6,1.7c2.2,0.4,4.4-0.4,5.6-2.2c1,1.7,3,2.8,5.5,2.2
		c36-9.6,71.8-20,107.4-31c35.5-10.9,70.7-22.5,105.8-34.8c16.8-5.9,33.5-11.9,50.1-18.1c2.2,1,5.1-0.1,6.3-2.2c0-0.1,0-0.1,0.1-0.2
		c0.3-0.1,0.5-0.2,0.8-0.3c2.6-1,4.3-3.4,3.6-6.3C727.5,488.6,724.6,486.6,722,487.6z M705.5,185.4c-0.1-0.2-0.1-0.4-0.2-0.6
		c0.1,0.1,0.3,0.3,0.4,0.4C705.6,185.3,705.6,185.3,705.5,185.4z M703.2,182.8c-0.5-0.2-1-0.4-1.6-0.5c0,0,0.1,0,0.1,0
		c0.3,0,0.5-0.1,0.8-0.2C702.7,182.4,702.9,182.6,703.2,182.8z M46.9,258.3C47.3,258.2,47.4,258.2,46.9,258.3L46.9,258.3z"/>
	<g>
		<path d="M33.4,489c51.2,16.6,103.1,30.7,155.3,43.3c53.7,13,107.8,24.3,162.1,34.6c30.7,5.9,61.5,11.4,92.3,16.8
			c2.7,0.5,5.5-0.7,6.3-3.6c0.7-2.5-0.8-5.8-3.6-6.3c-54.9-9.6-109.7-19.8-164.2-31.2c-53.5-11.2-106.8-23.6-159.6-38.1
			c-28.8-7.9-57.5-16.3-86-25.6C29.9,477.2,27.2,487,33.4,489L33.4,489z"/>
		<path d="M36.1,477.4c-9.4-9.5-14.9-22.4-14.9-35.4c0-3.6,0.2-5.8,0.8-8.7c0.3-1.5,0.7-2.9,1.1-4.3c0.3-0.8,0.5-1.6,0.8-2.3
			c0.1-0.3,0.2-0.6,0.4-0.9c-0.4,0.9,0.2-0.4,0.3-0.6c0.7-1.4,1.4-2.8,2.2-4.1c0.4-0.6,0.8-1.2,1.2-1.8c0.2-0.3,0.4-0.5,0.6-0.8
			c0.5-0.7-0.1,0.1,0.6-0.7c1-1.1,2-2.2,3.1-3.2c1.4-1.3,2.2-1.9,3.3-2.7c6.7-4.6,14.2-6.5,22.3-6.8c6.5-0.2,6.6-10.4,0-10.2
			c-16.5,0.6-32.4,7.8-40.7,22.6c-7.5,13.3-7.9,29.9-2.8,44.1c3.1,8.7,8,16.6,14.5,23.2C33.5,489.3,40.7,482.1,36.1,477.4
			L36.1,477.4z"/>
		<path d="M474.1,326.4c-2-0.9-4.1-1.4-6.2-1.8c-3.9-0.9-7.8-1.7-11.6-2.5c-13.2-2.8-26.5-5.4-39.7-8c-18.7-3.7-37.5-7.3-56.2-10.9
			c-22.1-4.2-44.3-8.4-66.4-12.5c-23.1-4.3-46.3-8.6-69.4-12.8c-22-4-44-8-66.1-11.9c-18.7-3.3-37.5-6.6-56.3-9.7
			C89,254,75.8,251.8,62.6,250c-4.2-0.6-8.4-1.2-12.6-1.5c-2.7-0.2-5.1-0.4-7.6,0.7c-21.3,9.3-34.9,31.1-40,53.2
			c-5.5,24.2-2,51,12.2,71.6c7.7,11.1,18.1,20.1,30.2,26.2c2.9,1.4,5.1,2.4,8.1,3c8.4,1.8,16.9,3.6,25.3,5.4
			c15.4,3.3,30.7,6.6,46.1,9.9c19.9,4.3,39.8,8.5,59.7,12.8c22.2,4.7,44.4,9.5,66.6,14.2c22.3,4.8,44.7,9.6,67,14.3
			c20,4.3,40.1,8.6,60.1,12.8c15.5,3.3,31.1,6.6,46.6,10c8.8,1.9,17.6,3.8,26.4,5.7c1.1,0.2,2.3,0.5,3.4,0.7
			c3.6,0.8,7.6-2.4,6.3-6.3c-6.2-18.5-8.7-38-8.5-57.5c0.3-19.6,3.5-39.8,11.5-57.9c4.2-9.4,9.7-18.3,16.8-25.8
			c4.5-4.7-2.7-11.9-7.2-7.2c-14.1,14.7-22.5,34-27,53.7c-4.7,20.9-5.5,42.7-2.8,63.9c1.4,11.3,3.7,22.5,7.3,33.4
			c2.1-2.1,4.2-4.2,6.3-6.3c-4.6-1-9.2-2-13.9-3c-12.4-2.6-24.7-5.3-37.1-7.9c-17.9-3.8-35.8-7.7-53.8-11.5
			c-21.2-4.5-42.5-9.1-63.7-13.6c-22.3-4.8-44.5-9.5-66.8-14.3c-21.3-4.6-42.7-9.1-64-13.7c-17.9-3.8-35.8-7.6-53.6-11.5
			c-12.4-2.7-24.8-5.3-37.3-8c-4.7-1-9.4-2-14-3c1.5,0.3-0.6-0.3-1.1-0.5c-0.8-0.4-1.5-0.7-2.2-1.1c-1.6-0.8-3.2-1.7-4.8-2.7
			c-2.7-1.6-5.6-3.6-7.6-5.2c-4.6-3.7-9.3-8.6-12.4-12.8c-7.2-9.9-11.4-20.3-13.4-32.4c-0.4-2.5-0.7-4.7-0.9-7.8
			c-0.2-3-0.2-6-0.1-8.9c0.2-6.3,0.8-10.6,2.2-16.7c0.7-2.8,1.5-5.6,2.4-8.4c1-3,1.8-4.8,2.9-7.2c1.2-2.6,2.5-5,3.9-7.5
			c0.7-1.1,1.4-2.2,2.1-3.3c0.4-0.5,0.7-1.1,1.1-1.6c0.2-0.3,1.4-1.9,0.9-1.3c1.7-2.1,3.5-4.2,5.4-6.1c0.9-0.9,1.8-1.8,2.8-2.6
			c0.5-0.4,0.9-0.8,1.4-1.2c0.2-0.2,0.5-0.4,0.7-0.6c0.7-0.6-0.2,0.1,0.3-0.2c2.1-1.6,4.3-3.1,6.7-4.3c1.1-0.6,2.2-1.2,3.3-1.7
			c0.8-0.4,1.4-0.4,0.3-0.2c0,0,0.1,0,0.1,0c0.4-0.1-1.9,0-0.5,0.1c0.4,0,0.8,0,1.2,0c1.2,0,2.5,0.2,3.7,0.3
			c1.8,0.2,3.6,0.4,5.4,0.6c0.5,0.1,1,0.1,1.5,0.2c0.3,0,0.5,0.1,0.8,0.1c1.2,0.2-0.5-0.1-0.2,0c1.2,0.2,2.4,0.3,3.6,0.5
			c5.9,0.8,11.9,1.8,17.8,2.7c16.5,2.6,32.9,5.4,49.3,8.2c20.7,3.6,41.3,7.2,62,11c22.8,4.1,45.5,8.3,68.2,12.5
			c22.6,4.2,45.2,8.4,67.7,12.7c20.5,3.9,41,7.8,61.5,11.8c16,3.1,32,6.2,47.9,9.4c9.5,1.9,19,3.8,28.5,6c1.1,0.2,2.1,0.5,3.2,0.8
			c0.9,0.2,2.5,0.9,0.4,0c2.5,1.2,5.5,0.7,7-1.8C477.2,331.1,476.6,327.5,474.1,326.4L474.1,326.4z"/>
		<path d="M44.4,246.4c-7.4-1-13.7-3-19.7-7c-0.9-0.6-1.6-1.2-2.8-2.3c-1.1-1-2.1-2.2-3.1-3.3c-0.6-0.7,0.7,0.9-0.2-0.3
			c-0.2-0.3-0.4-0.5-0.5-0.8c-0.4-0.5-0.7-1-1-1.6c-0.8-1.3-1.5-2.7-2.2-4.1c-0.1-0.2-0.4-0.9,0-0.1c-0.1-0.3-0.2-0.6-0.3-0.9
			c-0.3-0.7-0.5-1.5-0.8-2.2c-0.4-1.3-0.8-2.7-1.1-4.1c-0.2-0.8-0.3-1.6-0.4-2.3c-0.1-0.3-0.3-2-0.2-1c-0.2-1.5-0.3-3-0.4-4.6
			c-0.1-3-0.1-6,0.2-9c0.1-0.7,0.1-1.5,0.2-2.2c0-0.3,0.3-2.2,0.2-1.3c0.2-1.5,0.5-3,0.8-4.6c1.1-5.5,2.6-10.9,4.6-16.2
			c0.2-0.7,0.5-1.3,0.8-2c0.1-0.3,0.7-1.8,0.3-0.7c0.5-1.1,1-2.2,1.5-3.4c1.8-3.8,4.1-7.3,7.1-10.3c5.4-5.2,13.1-8.1,20.5-7.4
			c3.4,0.3,6.8,0.7,10.2,1.2c2.6,0.3,5.2,0.7,7.8,1c1.5,0.2,3,0.4,4.5,0.6c0.4,0.1,0.8,0.1,1.2,0.2c1.3,0.2-0.9-0.1,0,0
			c0.9,0.1,1.8,0.2,2.7,0.4c17.1,2.3,34.2,4.8,51.2,7.2c22.3,3.2,44.6,6.5,66.9,9.8c25,3.7,50,7.4,75,11.2
			c24.9,3.7,49.7,7.5,74.6,11.3c22.3,3.4,44.5,6.9,66.7,10.4c16.9,2.7,33.7,5.3,50.5,8.1c8.9,1.5,17.9,2.8,26.7,4.7
			c0.7,0.1,1.4,0.3,2,0.5c2.6,0.9,5.6-1,6.3-3.6c0.8-2.8-1-5.3-3.6-6.3c-2-0.7-4.2-1-6.3-1.4c-4.7-0.9-9.3-1.7-14-2.5
			c-15.5-2.6-31.1-5.1-46.6-7.6c-21.7-3.5-43.5-6.8-65.2-10.2c-25-3.9-49.9-7.7-74.9-11.4c-25.5-3.9-51-7.7-76.5-11.5
			c-23.3-3.5-46.5-6.9-69.8-10.2c-18.2-2.6-36.5-5.3-54.8-7.8c-10.9-1.5-21.8-3.1-32.7-4.2c-5.1-0.5-10.1,0-15.1,1.6
			c-15.5,5-23.4,18.9-28.2,33.5c-7.5,23.1-8.5,54,14.3,68.9c6.3,4.1,13.7,6.3,21,7.4c2.7,0.4,5.5-0.7,6.3-3.6
			C48.6,250.2,47.1,246.8,44.4,246.4L44.4,246.4z"/>
		<path d="M68.6,143.7c-5.9-5.6-10.3-12.8-12.9-20.2c-1.5-4.2-2.5-8.5-3.1-12.8c-0.1-0.6,0-0.1,0,0.1c0-0.3-0.1-0.5-0.1-0.8
			c-0.1-0.6-0.1-1.2-0.2-1.8c-0.1-1.1-0.2-2.3-0.2-3.4c-0.1-2.2-0.1-4.4,0-6.6c0.2-4.9,0.6-7.9,1.6-12.6c0.5-2.2,1.1-4.5,1.8-6.7
			c0.3-1,0.7-2,1-3c0.2-0.5,0.4-1,0.6-1.5c0.1-0.2,0.6-1.6,0.4-1c3.6-8.5,8.2-15.2,15-21.2c7.1-6.3,16.9-10.6,26.4-11.9
			c2.7-0.4,5.1-2.1,5.1-5.1c0-2.5-2.3-5.4-5.1-5.1c-10.6,1.4-20.7,4.9-29.3,11.4c-8,6-14.5,13.9-19.1,22.9
			c-9,17.8-11.2,39.4-5.6,58.6c3.1,10.5,8.6,20.3,16.5,27.9C66.2,155.5,73.4,148.3,68.6,143.7L68.6,143.7z"/>
		<path d="M490.3,216.6c-5.2,7.1-11.4,13-17.4,19.4c-5.5,5.9-8.9,12.8-11.8,20.3c-6,15.7-5.5,32.4-0.2,48.3
			c3.7,10.9,9,21.3,14.6,31.3c3.2,5.7,12,0.6,8.8-5.1c-8.3-14.7-16.7-31-17.5-48.2c-0.3-7.4,0.9-14.5,3.4-21.6
			c1.3-3.8,3-7.4,4.8-10.9c1.6-2.9,2.7-4.4,4.9-6.7c6.6-7.1,13.4-13.8,19.2-21.7c1.6-2.2,0.4-5.7-1.8-7
			C494.7,213.3,491.9,214.4,490.3,216.6L490.3,216.6z"/>
		<path d="M452.1,487.7c-9.6,13.1-17.8,28.1-20.5,44.3c-2.8,16.3,0.2,32.4,8.6,46.7c3.3,5.6,12.1,0.5,8.8-5.1
			c-7.3-12.3-10.1-26.4-7.3-40.4c2.9-14.8,10.4-28.2,19.2-40.3c1.6-2.2,0.4-5.7-1.8-7C456.4,484.3,453.7,485.4,452.1,487.7
			L452.1,487.7z"/>
		<path d="M454.3,583.8c36-9.6,71.8-20,107.4-31c35.5-10.9,70.7-22.5,105.8-34.8c19.1-6.7,38.2-13.6,57.2-20.7
			c2.6-1,4.3-3.4,3.6-6.3c-0.7-2.5-3.7-4.5-6.3-3.6c-34,12.7-68.2,24.7-102.7,36.2c-35.5,11.8-71.2,22.9-107.1,33.3
			c-20.2,5.9-40.4,11.5-60.6,17C445.2,575.7,447.9,585.5,454.3,583.8L454.3,583.8z"/>
		<path d="M459.8,489c34.4-9.2,68.5-19.9,102.5-30.7c35.3-11.2,70.5-22.7,105.9-33.8c15.1-4.7,30.1-9.4,45.3-13.6
			c6.3-1.8,3.6-11.6-2.7-9.8c-30,8.3-59.5,18.1-89.1,27.6c-36.5,11.7-72.9,23.5-109.6,34.6c-18.2,5.5-36.5,10.9-54.9,15.9
			C450.8,480.9,453.5,490.7,459.8,489L459.8,489z"/>
		<path d="M476.6,344c34.1-9.9,69-17.2,103.8-24.6c36.9-7.9,73.9-15.4,110.9-22.8c11.3-2.3,22.6-4.4,33.8-6.9
			c6.4-1.4,3.7-11.2-2.7-9.8c-25.8,5.6-51.9,10.4-77.8,15.7c-39.5,8-78.9,16.2-118.2,25.3c-17.6,4.1-35.2,8.2-52.6,13.3
			C467.6,336.1,470.3,345.9,476.6,344L476.6,344z"/>
		<path d="M501.6,223.8c52.1-8.2,104.3-16.5,156.4-24.7c14.7-2.3,29.4-4.6,44.1-7c2.7-0.4,4.2-3.8,3.6-6.3c-0.8-2.9-3.5-4-6.3-3.6
			c-52.1,8.2-104.3,16.5-156.4,24.7c-14.7,2.3-29.4,4.6-44.1,7c-2.7,0.4-4.2,3.8-3.6,6.3C496.1,223.2,498.9,224.3,501.6,223.8
			L501.6,223.8z"/>
		<path d="M490.5,107.1c28.9-5.5,58-9.2,87.2-12.7c30.6-3.7,61.3-7,91.9-11c15.6-2,31.3-4.2,46.8-6.9c2.7-0.5,4.2-3.8,3.6-6.3
			c-0.8-2.9-3.5-4-6.3-3.6c-28.1,4.9-56.5,8.2-84.8,11.6c-31,3.7-62.1,7.1-93.1,11.4c-16,2.2-32,4.7-47.9,7.7
			c-2.7,0.5-4.2,3.8-3.6,6.3C485,106.3,487.8,107.6,490.5,107.1L490.5,107.1z"/>
		<path d="M103,37.4c27.9-4.5,55.9-8.5,84-12.1c31.3-4,62.7-7.4,94.1-10.3c19.7-1.8,39.4-3.4,59.1-4.8c2.7-0.2,5.1-2.2,5.1-5.1
			c0-2.6-2.3-5.3-5.1-5.1c-34.1,2.4-68.1,5.4-102.1,9.1c-30.3,3.3-60.6,7-90.8,11.4c-15.7,2.2-31.4,4.6-47,7.1
			c-2.7,0.4-4.2,3.8-3.6,6.3C97.5,36.7,100.3,37.8,103,37.4L103,37.4z"/>
		<path d="M338,10.2c9,0.9,17.9,2,26.8,3.2c4.7,0.6,9.4,1.3,14.8,2c5.6,0.8,11.3,1.6,16.9,2.4c25.7,3.8,51.3,7.9,76.8,12.2
			c28,4.7,56,9.5,84,14.5c27,4.8,54.1,9.7,81.1,14.7c22.7,4.2,45.5,8.6,68.2,13c2.3,0.5,4.6,0.9,6.9,1.4c2.7,0.5,5.5-0.8,6.3-3.6
			c0.7-2.5-0.8-5.7-3.6-6.3c-21.9-4.3-43.9-8.5-65.8-12.6c-26.8-5-53.5-9.9-80.3-14.7c-28.2-5-56.3-9.9-84.6-14.7
			c-26.1-4.4-52.3-8.6-78.5-12.6c-20.9-3.1-41.8-6.2-62.8-8.5c-2.1-0.2-4.1-0.5-6.2-0.7c-2.7-0.3-5.1,2.5-5.1,5.1
			C332.9,8.1,335.3,9.9,338,10.2L338,10.2z"/>
		<path d="M480.8,103.5c-10.4,13.1-18.2,28.4-20.7,45.1c-2.4,16.2-0.2,32.4,6.4,47.5c3.9,8.9,9.4,17,15.7,24.4
			c1.8,2.1,5.4,1.8,7.2,0c2.1-2.1,1.8-5.1,0-7.2c-9.7-11.3-16.6-24.8-19.2-39.5c-2.4-13.8-0.4-28.1,4.7-41.1
			c3.1-7.9,7.7-15.4,13-22.1c1.7-2.1,2.1-5.1,0-7.2C486.2,101.8,482.5,101.4,480.8,103.5L480.8,103.5z"/>
		<path d="M711.4,67.9c-11.6,12.9-19.8,28.9-23.7,45.8c-3.7,16.3-3.8,34.1,2.6,49.7c3.6,8.7,8.9,16.4,16.1,22.5
			c2.1,1.8,5.1,2.1,7.2,0c1.8-1.8,2.1-5.4,0-7.2c-23.6-20-21.8-55.7-9.4-81.7c3.8-7.9,8.5-15.4,14.4-21.9
			C722.9,70.3,715.8,63,711.4,67.9L711.4,67.9z"/>
		<path d="M705,186c-7.9,11.5-10.7,26.7-11.7,40.3c-1.2,16.1,0.6,33.2,7.8,47.8c3.9,7.8,9.6,14.5,16.9,19.3
			c5.5,3.6,10.6-5.2,5.1-8.8c-5.3-3.4-9.3-8.2-12.5-14.1c-1.7-3.2-2.7-5.6-3.8-9.2c-1.1-3.5-2-7.2-2.6-10.8
			c-2.3-13.5-1.3-28.6,2.2-41.9c0.9-3.4,2-6.7,3.3-9.9c-0.3,0.8,0.6-1.3,0.8-1.7c0.3-0.6,0.6-1.3,1-1.9c0.7-1.3,1.5-2.5,2.3-3.7
			c1.6-2.3,0.4-5.6-1.8-7C709.4,182.7,706.6,183.8,705,186L705,186z"/>
		<path d="M722,284c-17.8,5.1-28,21.6-32.1,38.8c-4.5,18.8-3.2,39.5,3.1,57.7c3.4,9.7,8.3,19,15.6,26.4c4.6,4.7,11.8-2.5,7.2-7.2
			c-5.1-5.1-9.4-12.5-11.9-19.1c-3.1-8-5.1-17-5.9-24.8c-0.4-4.6-0.6-9.1-0.4-13.7c0.2-4.6,0.5-8.4,1.3-12.5
			c0.8-4.2,1.9-8.3,3.4-12.3c0.8-2,0.9-2.5,1.9-4.4c0.9-1.8,1.8-3.5,2.9-5.2c1.5-2.3,1.8-2.8,3.5-4.7c1.4-1.5,2.8-2.9,4.4-4.2
			c-0.8,0.7,0.4-0.3,0.4-0.3c0.5-0.4,1-0.7,1.5-1c0.8-0.5,1.6-1,2.4-1.4c0.4-0.2,0.8-0.4,1.3-0.6c0.3-0.1,0.6-0.3,0.9-0.4
			c-0.5,0.2-0.5,0.2,0.1,0c1-0.4,2.1-0.8,3.2-1.1C731,292.1,728.3,282.2,722,284L722,284z"/>
		<path d="M715.6,404c-9.4,10-14.9,23.4-17.1,36.9c-2.3,14.1-1.6,28.9,4.3,42c3.1,6.8,7.9,12.5,14,16.8c2.3,1.6,5.6,0.4,7-1.8
			c1.5-2.5,0.4-5.4-1.8-7c-4-2.8-7.2-6.8-9.6-11.6c-2.2-4.4-3.9-10.8-4.5-15.7c-1.4-12.5,0.3-24.9,5.1-36.5
			c2.3-5.6,5.8-11.5,9.9-15.8C727.3,406.4,720.1,399.2,715.6,404L715.6,404z"/>
		<path d="M86.6,45.7c51.5,7.1,103,13.7,154.5,20.5c54.3,7.2,108.5,14.5,162.6,23c27.4,4.3,54.8,8.9,82.1,14.1
			c3.8,0.7,5.5-5.1,1.6-5.9C437,87.8,386.2,80.2,335.4,73C281,65.3,226.6,58.2,172.2,51.1c-28-3.7-56-7.4-84-11.2
			c-1.6-0.2-3.3,0.4-3.8,2.1C84,43.4,84.9,45.5,86.6,45.7L86.6,45.7z"/>
		<path d="M400.6,170.9l-125.2-17.2c-13.3-1.8-22.7-14.1-20.9-27.5l0,0c1.8-13.3,14.1-22.7,27.5-20.9l125.2,17.2
			c13.3,1.8,22.7,14.1,20.9,27.5v0C426.3,163.4,414,172.8,400.6,170.9z"/>
		<path d="M200.5,251.8L75.5,232.5c-13.3-2.1-22.4-14.5-20.4-27.8l0,0c2.1-13.3,14.5-22.4,27.8-20.4l124.9,19.3
			c13.3,2.1,22.4,14.5,20.4,27.8v0C226.2,244.7,213.8,253.8,200.5,251.8z"/>
		<path d="M476,124.6c8.8-2.6,18-3.8,27-5.3c16-2.7,32-5.2,48.1-7.7c36.7-5.6,73.4-10.8,110.2-15.5c13.4-1.7,26.8-3.5,40.3-4.7
			c2.6-0.2,2.6-4.3,0-4.1c-29.1,2.5-58.2,6.9-87.1,11c-35.9,5-71.8,10.2-107.6,16.2c-10.6,1.8-21.7,3.1-32,6.2
			C472.5,121.4,473.5,125.3,476,124.6L476,124.6z"/>
		<path d="M473.8,135.7c8.8-2.6,18-3.8,27-5.3c16-2.7,32-5.2,48.1-7.7c36.7-5.6,73.4-10.8,110.2-15.5c13.4-1.7,26.8-3.5,40.3-4.7
			c2.6-0.2,2.6-4.3,0-4.1c-29.1,2.5-58.2,6.9-87.1,11c-35.9,5-71.8,10.2-107.6,16.2c-10.6,1.8-21.7,3.1-32,6.2
			C470.2,132.5,471.3,136.4,473.8,135.7L473.8,135.7z"/>
		<path d="M471.6,149c8.5-2.5,17.5-3.7,26.2-5.3c15.6-2.7,31.2-5.2,46.8-7.6c35.6-5.5,71.2-10.6,107-15.2
			c13.1-1.7,26.3-3.5,39.5-4.6c2.6-0.2,2.6-4.3,0-4.1c-28.5,2.4-56.8,6.8-85.1,10.8c-34.8,4.9-69.6,10-104.3,15.9
			c-10.4,1.8-21.1,3.1-31.3,6.1C468,145.8,469.1,149.7,471.6,149L471.6,149z"/>
		<path d="M467.2,162.3c8.8-2.6,18-3.8,27-5.3c16-2.7,32-5.2,48.1-7.7c36.7-5.6,73.4-10.8,110.2-15.5c13.4-1.7,26.8-3.5,40.3-4.7
			c2.6-0.2,2.6-4.3,0-4.1c-29.1,2.5-58.2,6.9-87.1,11c-35.9,5-71.8,10.2-107.6,16.2c-10.6,1.8-21.7,3.1-32,6.2
			C463.6,159.1,464.6,163,467.2,162.3L467.2,162.3z"/>
		<path d="M467.2,173.4c8.8-2.6,18-3.8,27-5.3c16-2.7,32-5.2,48.1-7.7c36.7-5.6,73.4-10.8,110.2-15.5c13.4-1.7,26.8-3.5,40.3-4.7
			c2.6-0.2,2.6-4.3,0-4.1c-29.1,2.5-58.2,6.9-87.1,11c-35.9,5-71.8,10.2-107.6,16.2c-10.6,1.8-21.7,3.1-32,6.2
			C463.6,170.2,464.6,174.1,467.2,173.4L467.2,173.4z"/>
		<path d="M469.4,184.5c8.8-2.6,18-3.8,27-5.3c16-2.7,32-5.2,48.1-7.7c36.7-5.6,73.4-10.8,110.2-15.5c13.4-1.7,26.8-3.5,40.3-4.7
			c2.6-0.2,2.6-4.3,0-4.1c-29.1,2.5-58.2,6.9-87.1,11c-35.9,5-71.8,10.2-107.6,16.2c-10.6,1.8-21.7,3.1-32,6.2
			C465.8,181.3,466.9,185.2,469.4,184.5L469.4,184.5z"/>
		<path d="M469.4,193.4c8.8-2.6,18-3.8,27-5.3c16-2.7,32-5.2,48.1-7.7c36.7-5.6,73.4-10.8,110.2-15.5c13.4-1.7,26.8-3.5,40.3-4.7
			c2.6-0.2,2.6-4.3,0-4.1c-29.1,2.5-58.2,6.9-87.1,11c-35.9,5-71.8,10.2-107.6,16.2c-10.6,1.8-21.7,3.1-32,6.2
			C465.8,190.2,466.9,194.1,469.4,193.4L469.4,193.4z"/>
		<path d="M473.8,204.4c8.8-2.6,18-3.8,27-5.3c16-2.7,32-5.2,48.1-7.7c36.7-5.6,73.4-10.8,110.2-15.5c13.4-1.7,26.8-3.5,40.3-4.7
			c2.6-0.2,2.6-4.3,0-4.1c-29.1,2.5-58.2,6.9-87.1,11c-35.9,5-71.8,10.2-107.6,16.2c-10.6,1.8-21.7,3.1-32,6.2
			C470.2,201.3,471.3,205.2,473.8,204.4L473.8,204.4z"/>
		<path d="M476,215.5c8.8-2.6,18-3.8,27-5.3c16-2.7,32-5.2,48.1-7.7c36.7-5.6,73.4-10.8,110.2-15.5c13.4-1.7,26.8-3.5,40.3-4.7
			c2.6-0.2,2.6-4.3,0-4.1c-29.1,2.5-58.2,6.9-87.1,11c-35.9,5-71.8,10.2-107.6,16.2c-10.6,1.8-21.7,3.1-32,6.2
			C472.5,212.3,473.5,216.3,476,215.5L476,215.5z"/>
		<path d="M477.2,242.8c8.8-2.6,18.1-4,27.1-5.6c16.1-3,32.2-5.7,48.4-8.4c36.9-6.1,73.9-11.9,110.9-17.1c13.4-1.9,26.8-3.9,40.3-5
			c2.6-0.2,2.6-4.3,0-4.1c-11.6,1-23.3,2.6-34.8,4.2c-17.6,2.4-35.2,5-52.7,7.7c-36.1,5.5-72.2,11.3-108.2,17.8
			c-10.7,1.9-21.7,3.5-32.1,6.5C473.6,239.7,474.7,243.6,477.2,242.8L477.2,242.8z"/>
		<path d="M473.7,259.3c8.7-2.6,17.8-4.1,26.7-5.9c15.8-3.1,31.6-6.1,47.4-8.9c36.4-6.6,72.8-12.9,109.3-18.5
			c13.2-2,26.5-4.2,39.9-5.3c2.6-0.2,2.6-4.3,0-4.1c-11.5,1-23,2.8-34.4,4.5c-17.3,2.6-34.5,5.4-51.7,8.3
			c-35.6,6-71.2,12.2-106.6,19.2c-10.5,2.1-21.4,3.8-31.7,6.9C470.1,256.1,471.2,260,473.7,259.3L473.7,259.3z"/>
		<path d="M469,276.8c8.8-2.6,17.9-4.4,26.9-6.3c16.1-3.5,32.3-6.9,48.5-10.2c36.8-7.5,73.6-14.7,110.6-21.1
			c13.3-2.3,26.6-4.8,40-5.9c2.6-0.2,2.6-4.3,0-4.1c-11.6,1-23.1,3-34.6,4.9c-17.5,2.9-34.9,6.1-52.3,9.4
			c-19.3,3.7-38.6,7.5-57.9,11.3c-16.8,3.4-33.6,6.9-50.3,10.5c-10.1,2.2-20.3,4.3-30.3,7c-0.6,0.2-1.2,0.3-1.8,0.5
			C465.4,273.7,466.5,277.6,469,276.8L469,276.8z"/>
		<path d="M467.8,287.4c8.9-2.6,18.2-4.2,27.2-6.1c16.3-3.3,32.6-6.4,49-9.5c19.4-3.6,38.9-7.1,58.3-10.5
			c18.1-3.2,36.2-6.2,54.3-9.1c12.5-2,25.1-4,37.7-5.3c1-0.1,1.9-0.2,2.9-0.3c2.6-0.2,2.6-4.3,0-4.1c-11.7,1-23.3,2.9-34.9,4.7
			c-17.8,2.7-35.6,5.7-53.3,8.8c-19.5,3.4-39.1,6.9-58.6,10.5c-17.1,3.2-34.1,6.4-51.1,9.8c-10.3,2.1-20.7,4-30.9,6.7
			c-0.6,0.2-1.2,0.3-1.7,0.5C464.2,284.2,465.3,288.1,467.8,287.4L467.8,287.4z"/>
		<path d="M471.3,300.3c8.8-2.6,18-4.2,27.1-6.1c16-3.3,32.1-6.4,48.2-9.4c36.7-6.9,73.5-13.5,110.5-19.4
			c13.3-2.1,26.8-4.4,40.2-5.5c2.6-0.2,2.6-4.3,0-4.1c-11.6,1-23.2,2.9-34.8,4.6c-17.5,2.7-35,5.7-52.5,8.7
			c-36,6.3-71.9,12.8-107.7,20c-10.7,2.1-21.6,4-32,7.1C467.8,297.1,468.8,301,471.3,300.3L471.3,300.3z"/>
		<path d="M473.7,313.2c8.9-2.6,18-4.3,27.1-6.2c16-3.4,32.1-6.6,48.2-9.8c36.7-7.2,73.5-14.2,110.4-20.3
			c13.3-2.2,26.7-4.6,40.2-5.8c2.6-0.2,2.6-4.3,0-4.1c-11.6,1-23.2,3-34.7,4.8c-17.5,2.8-35,6-52.5,9.2c-36,6.6-71.9,13.5-107.7,21
			c-10.7,2.2-21.5,4.2-32,7.3C470.1,310,471.2,313.9,473.7,313.2L473.7,313.2z"/>
		<path d="M477.2,323.7c8.8-2.6,17.8-4.4,26.8-6.4c16-3.5,32-6.9,48.1-10.3c36.5-7.5,73.1-14.8,109.8-21.2
			c13.2-2.3,26.5-4.8,39.9-5.9c2.6-0.2,2.6-4.3,0-4.1c-11.7,1-23.3,3.1-34.9,5c-17.4,3-34.7,6.2-52,9.5
			c-35.8,6.9-71.4,14.1-107,21.9c-10.6,2.3-21.3,4.4-31.7,7.5C473.6,320.5,474.7,324.5,477.2,323.7L477.2,323.7z"/>
		<path d="M466.6,358.9c9.2-2.7,18.5-4.8,27.8-7.1c16.9-4.1,33.7-8.1,50.6-12.1c20-4.7,40-9.3,60-13.9c18.6-4.2,37.3-8.4,55.9-12.5
			c12.8-2.8,25.5-5.6,38.4-7.8c0.9-0.2,1.9-0.3,2.9-0.5c2.6-0.4,1.5-4.3-1.1-3.9c-11.9,1.9-23.6,4.5-35.3,7
			c-18.2,3.9-36.4,8-54.5,12.1c-20.1,4.6-40.2,9.2-60.2,13.9c-17.5,4.1-35,8.3-52.5,12.5c-10.5,2.5-21,5-31.3,7.9
			c-0.6,0.2-1.2,0.3-1.7,0.5C463.1,355.7,464.1,359.6,466.6,358.9L466.6,358.9z"/>
		<path d="M459.6,371.8c9.2-2.7,18.5-4.8,27.8-7.1c16.9-4.1,33.7-8.1,50.6-12.1c20-4.7,40-9.3,60-13.9c18.6-4.2,37.3-8.4,55.9-12.5
			c12.8-2.8,25.5-5.6,38.4-7.8c0.9-0.2,1.9-0.3,2.9-0.5c2.6-0.4,1.5-4.3-1.1-3.9c-11.9,1.9-23.6,4.5-35.3,7
			c-18.2,3.9-36.4,8-54.5,12.1c-20.1,4.6-40.2,9.2-60.2,13.9c-17.5,4.1-35,8.3-52.5,12.5c-10.5,2.5-21,5-31.3,7.9
			c-0.6,0.2-1.2,0.3-1.7,0.5C456,368.6,457.1,372.5,459.6,371.8L459.6,371.8z"/>
		<path d="M452.6,398.7c9.2-2.7,18.5-4.8,27.8-7.1c16.9-4.1,33.7-8.1,50.6-12.1c20-4.7,40-9.3,60-13.9c18.6-4.2,37.3-8.4,55.9-12.5
			c12.8-2.8,25.5-5.6,38.4-7.8c0.9-0.2,1.9-0.3,2.9-0.5c2.6-0.4,1.5-4.3-1.1-3.9c-11.9,1.9-23.6,4.5-35.3,7
			c-18.2,3.9-36.4,8-54.5,12.1c-20.1,4.6-40.2,9.2-60.2,13.9c-17.5,4.1-35,8.3-52.5,12.5c-10.5,2.5-21,5-31.3,7.9
			c-0.6,0.2-1.2,0.3-1.7,0.5C449,395.6,450.1,399.5,452.6,398.7L452.6,398.7z"/>
		<path d="M449.1,411.6c9.2-2.7,18.5-4.8,27.8-7.1c16.9-4.1,33.7-8.1,50.6-12.1c20-4.7,40-9.3,60-13.9c18.6-4.2,37.3-8.4,55.9-12.5
			c12.8-2.8,25.5-5.6,38.4-7.8c0.9-0.2,1.9-0.3,2.9-0.5c2.6-0.4,1.5-4.3-1.1-3.9c-11.9,1.9-23.6,4.5-35.3,7
			c-18.2,3.9-36.4,8-54.5,12.1c-20.1,4.6-40.2,9.2-60.2,13.9c-17.5,4.1-35,8.3-52.5,12.5c-10.5,2.5-21,5-31.3,7.9
			c-0.6,0.2-1.2,0.3-1.7,0.5C445.5,408.4,446.5,412.4,449.1,411.6L449.1,411.6z"/>
		<path d="M451.4,422.2c9.2-2.7,18.5-4.8,27.8-7.1c16.9-4.1,33.7-8.1,50.6-12.1c20-4.7,40-9.3,60-13.9c18.6-4.2,37.3-8.4,55.9-12.5
			c12.8-2.8,25.5-5.6,38.4-7.8c0.9-0.2,1.9-0.3,2.9-0.5c2.6-0.4,1.5-4.3-1.1-3.9c-11.9,1.9-23.6,4.5-35.3,7
			c-18.2,3.9-36.4,8-54.5,12.1c-20.1,4.6-40.2,9.2-60.2,13.9c-17.5,4.1-35,8.3-52.5,12.5c-10.5,2.5-21,5-31.3,7.9
			c-0.6,0.2-1.2,0.3-1.7,0.5C447.8,419,448.9,422.9,451.4,422.2L451.4,422.2z"/>
		<path d="M453.8,432.7c9.4-2.8,18.9-5,28.4-7.3c17.3-4.3,34.7-8.5,52-12.7c20.5-4.9,41.1-9.8,61.7-14.6
			c19.1-4.4,38.2-8.8,57.4-13.1c13-2.9,26-5.8,39.1-8.1c1-0.2,1.9-0.3,2.9-0.5c2.6-0.4,1.5-4.3-1.1-3.9c-12,2-24,4.7-35.9,7.3
			c-18.7,4.1-37.3,8.3-55.9,12.6c-20.7,4.8-41.3,9.7-61.9,14.6c-18,4.3-36,8.7-54,13.1c-10.7,2.6-21.4,5.2-32,8.2
			c-0.6,0.2-1.2,0.3-1.8,0.5C450.2,429.5,451.2,433.5,453.8,432.7L453.8,432.7z"/>
		<path d="M450.2,446.8c9.5-2.8,19.3-5.1,29-7.5c17.8-4.4,35.6-8.7,53.4-13c21.1-5,42.2-10,63.4-14.9c19.6-4.5,39.2-9,58.8-13.4
			c13.2-2.9,26.5-5.9,39.9-8.3c1-0.2,1.9-0.3,2.9-0.5c2.6-0.4,1.5-4.3-1.1-3.9c-12.2,2-24.4,4.7-36.5,7.4
			c-19.1,4.2-38.2,8.5-57.3,12.9c-21.2,4.9-42.4,9.9-63.6,14.9c-18.5,4.4-37,8.8-55.4,13.4c-10.9,2.7-21.9,5.3-32.8,8.3
			c-0.6,0.2-1.2,0.3-1.8,0.5C446.7,443.6,447.7,447.5,450.2,446.8L450.2,446.8z"/>
		<path d="M452.6,459.7c9.6-2.8,19.3-5.3,28.9-7.9c17.8-4.8,35.5-9.4,53.3-14.1c21.2-5.5,42.4-11,63.6-16.3
			c19.6-4.9,39.1-9.8,58.8-14.5c13.2-3.1,26.4-6.4,39.8-8.8c1-0.2,1.9-0.3,2.9-0.5c2.6-0.4,1.5-4.3-1.1-3.9c-12.3,2-24.4,5-36.5,7.8
			c-19.1,4.5-38.2,9.2-57.2,14c-21.3,5.4-42.6,10.8-63.8,16.3c-18.5,4.8-36.9,9.6-55.3,14.5c-10.9,2.9-21.9,5.8-32.7,8.9
			c-0.6,0.2-1.2,0.3-1.8,0.5C449,456.5,450.1,460.4,452.6,459.7L452.6,459.7z"/>
		<path d="M453.8,501.9c9.9-2.9,19.7-6.3,29.6-9.5c18.4-6,36.8-12,55.2-18c21.7-7.1,43.5-14.1,65.3-21c20.2-6.4,40.4-12.7,60.7-18.7
			c13.4-3.9,26.9-8.1,40.6-10.8c1-0.2,2-0.4,2.9-0.5c2.6-0.4,1.5-4.3-1.1-3.9c-12.6,2-24.9,5.9-37.1,9.4
			c-19.8,5.7-39.4,11.8-59.1,18c-21.9,6.9-43.7,13.9-65.5,21c-19.1,6.2-38.2,12.5-57.3,18.7c-11.2,3.7-22.3,7.4-33.6,10.9
			c-0.6,0.2-1.2,0.4-1.8,0.5C450.2,498.7,451.2,502.6,453.8,501.9L453.8,501.9z"/>
		<path d="M449.1,517.1c10-3,19.9-6.2,29.8-9.3c18.5-5.9,36.9-11.7,55.4-17.6c21.8-6.9,43.5-13.8,65.3-20.6
			c20.2-6.3,40.4-12.6,60.6-18.7c13.4-4,26.8-8.2,40.4-11.6c0.9-0.2,1.9-0.5,2.8-0.7c2.5-0.6,1.5-4.5-1.1-3.9
			c-12.4,2.9-24.6,6.7-36.8,10.4c-19.7,5.9-39.3,12-58.9,18.1c-21.9,6.8-43.7,13.7-65.6,20.6c-19.2,6.1-38.3,12.2-57.5,18.2
			c-11.3,3.6-22.5,7.2-33.8,10.7c-0.6,0.2-1.2,0.4-1.8,0.5C445.5,513.9,446.5,517.9,449.1,517.1L449.1,517.1z"/>
		<path d="M445.6,528.8c9.9-2.9,19.7-6.3,29.6-9.5c18.4-6,36.8-12,55.2-18c21.7-7.1,43.5-14.1,65.3-21c20.2-6.4,40.4-12.7,60.7-18.7
			c13.4-3.9,26.9-8.1,40.6-10.8c1-0.2,2-0.4,2.9-0.5c2.6-0.4,1.5-4.3-1.1-3.9c-12.6,2-24.9,5.9-37.1,9.4
			c-19.8,5.7-39.4,11.8-59.1,18c-21.9,6.9-43.7,13.9-65.5,21c-19.1,6.2-38.2,12.5-57.3,18.7c-11.2,3.7-22.3,7.4-33.6,10.9
			c-0.6,0.2-1.2,0.4-1.8,0.5C442,525.7,443,529.6,445.6,528.8L445.6,528.8z"/>
		<path d="M443.2,541.7c9.9-2.9,19.7-6.3,29.6-9.5c18.4-6,36.8-12,55.2-18c21.7-7.1,43.5-14.1,65.3-21c20.2-6.4,40.4-12.7,60.7-18.7
			c13.4-3.9,26.9-8.1,40.6-10.8c1-0.2,2-0.4,2.9-0.5c2.6-0.4,1.5-4.3-1.1-3.9c-12.6,2-24.9,5.9-37.1,9.4
			c-19.8,5.7-39.4,11.8-59.1,18c-21.9,6.9-43.7,13.9-65.5,21c-19.1,6.2-38.2,12.5-57.3,18.7c-11.2,3.7-22.3,7.4-33.6,10.9
			c-0.6,0.2-1.2,0.4-1.8,0.5C439.6,538.6,440.7,542.5,443.2,541.7L443.2,541.7z"/>
		<path d="M444.4,551.1c9.9-2.9,19.7-6.3,29.6-9.5c18.4-6,36.8-12,55.2-18c21.7-7.1,43.5-14.1,65.3-21c20.2-6.4,40.4-12.7,60.7-18.7
			c13.4-3.9,26.9-8.1,40.6-10.8c1-0.2,2-0.4,2.9-0.5c2.6-0.4,1.5-4.3-1.1-3.9c-12.6,2-24.9,5.9-37.1,9.4
			c-19.8,5.7-39.4,11.8-59.1,18c-21.9,6.9-43.7,13.9-65.5,21c-19.1,6.2-38.2,12.5-57.3,18.7c-11.2,3.7-22.3,7.4-33.6,10.9
			c-0.6,0.2-1.2,0.4-1.8,0.5C440.8,547.9,441.9,551.9,444.4,551.1L444.4,551.1z"/>
		<path d="M445.6,561.7c9.9-2.9,19.7-6.3,29.6-9.5c18.4-6,36.8-12,55.2-18c21.7-7.1,43.5-14.1,65.3-21c20.2-6.4,40.4-12.7,60.7-18.7
			c13.4-3.9,26.9-8.1,40.6-10.8c1-0.2,2-0.4,2.9-0.5c2.6-0.4,1.5-4.3-1.1-3.9c-12.6,2-24.9,5.9-37.1,9.4
			c-19.8,5.7-39.4,11.8-59.1,18c-21.9,6.9-43.7,13.9-65.5,21c-19.1,6.2-38.2,12.5-57.3,18.7c-11.2,3.7-22.3,7.4-33.6,10.9
			c-0.6,0.2-1.2,0.4-1.8,0.5C442,558.5,443,562.4,445.6,561.7L445.6,561.7z"/>
		<path d="M450.2,569.9c9.9-2.9,19.7-6.3,29.6-9.5c18.4-6,36.8-12,55.2-18c21.7-7.1,43.5-14.1,65.3-21c20.2-6.4,40.4-12.7,60.7-18.7
			c13.4-3.9,26.9-8.1,40.6-10.8c1-0.2,2-0.4,2.9-0.5c2.6-0.4,1.5-4.3-1.1-3.9c-12.6,2-24.9,5.9-37.1,9.4
			c-19.8,5.7-39.4,11.8-59.1,18c-21.9,6.9-43.7,13.9-65.5,21c-19.1,6.2-38.2,12.5-57.3,18.7c-11.2,3.7-22.3,7.4-33.6,10.9
			c-0.6,0.2-1.2,0.4-1.8,0.5C446.7,566.7,447.7,570.6,450.2,569.9L450.2,569.9z"/>
		<path d="M454.9,470.2c9.9-3.1,19.9-5.8,29.9-8.6c18-5,36-10,54-15c21.2-5.9,42.4-11.7,63.6-17.6c19.6-5.5,39.2-10.9,58.7-16.5
			c13.2-3.8,26.3-7.5,39.4-11.7c0.9-0.3,1.9-0.6,2.8-0.9c2.5-0.8,1.4-4.8-1.1-3.9c-11.9,4-24,7.3-36,10.8
			c-19,5.5-38.1,10.8-57.1,16.1c-21.3,5.9-42.5,11.8-63.8,17.7c-18.7,5.2-37.3,10.3-56,15.5c-11.2,3.1-22.5,6.2-33.7,9.6
			c-0.6,0.2-1.3,0.4-1.9,0.6C451.4,467.1,452.4,471,454.9,470.2L454.9,470.2z"/>
		<path d="M458.4,384.7c9.2-2.7,18.5-4.8,27.8-7.1c16.9-4.1,33.7-8.1,50.6-12.1c20-4.7,40-9.3,60-13.9c18.6-4.2,37.3-8.4,55.9-12.5
			c12.8-2.8,25.5-5.6,38.4-7.8c0.9-0.2,1.9-0.3,2.9-0.5c2.6-0.4,1.5-4.3-1.1-3.9c-11.9,1.9-23.6,4.5-35.3,7
			c-18.2,3.9-36.4,8-54.5,12.1c-20.1,4.6-40.2,9.2-60.2,13.9c-17.5,4.1-35,8.3-52.5,12.5c-10.5,2.5-21,5-31.3,7.9
			c-0.6,0.2-1.2,0.3-1.7,0.5C454.9,381.5,455.9,385.4,458.4,384.7L458.4,384.7z"/>
		<path d="M94.4,263.1c-22.2,33.5-30.4,76.3-21.5,115.6c2.4,10.4,6.4,20.8,14.5,28c1.9,1.8,4.8-1.1,2.9-2.9
			c-7-6.4-10.7-15.2-13-24.3c-2.3-9.4-3.5-19-3.8-28.6c-0.5-19.2,2.7-38.5,9.4-56.5c3.9-10.3,8.9-20.1,15-29.3
			C99.3,263,95.8,261,94.4,263.1L94.4,263.1z"/>
		<path d="M110.6,265.5c-19.7,33.6-27.4,73.7-22.1,112.3c1.5,11,4.1,21.8,7.7,32.3c0.9,2.5,4.8,1.4,3.9-1.1
			c-12.5-36.1-12.2-76.1,0.4-112.2c3.5-10.2,8.1-20,13.6-29.3C115.4,265.3,111.9,263.2,110.6,265.5L110.6,265.5z"/>
		<path d="M366.8,314.3c-19,34.5-27.3,74.7-23.8,113.9c1,11.1,2.9,22.1,5.8,32.9c0.7,2.5,4.6,1.5,3.9-1.1
			c-9.8-37.3-8.2-77.3,4.4-113.8c3.6-10.4,8-20.4,13.3-30C371.6,314.1,368.1,312,366.8,314.3L366.8,314.3z"/>
		<path d="M380.2,316.2c-8.2,17.5-15.3,35.6-19.7,54.5c-4.1,17.7-5.7,35.9-4.6,54c0.7,11.2,2.3,22.4,4.5,33.4
			c0.5,2.6,4.4,1.5,3.9-1.1c-3.7-18.5-5.6-37.4-4.3-56.3c1.2-17.7,5.3-35,11.1-51.8c3.6-10.5,8-20.7,12.7-30.7
			C384.8,315.9,381.3,313.8,380.2,316.2L380.2,316.2z"/>
		<path d="M472.5,96.3c-21.6,24.2-28.7,59.6-19.4,90.6c2.3,7.8,5.6,15.2,10,22.1c1,1.6,2.6,3.4,3.2,5.2c0.9,2.6-1.1,4.9-2.6,6.8
			c-2.2,3-4.1,6.2-5.8,9.6c-6.9,14.3-8.9,30.6-8.1,46.4c0.9,17.7,5,35.4,12.4,51.5c0.4-1,0.8-2,1.2-3c-8.2,2.7-13.3,9.8-16.7,17.4
			c-4.2,9.2-7,19.2-9.3,28.9c-5.6,23.1-7.3,47-4.5,70.6c1.7,14,4.8,27.7,9.2,41c0.5-0.8,0.9-1.7,1.4-2.5
			c-13.5,3.9-19,18.3-21.5,30.9c-2.9,15-4.1,31.4-1,46.4c1.8,8.6,5.4,16.6,11,23.3c1.7,2,4.5-0.9,2.9-2.9
			c-9.5-11.3-11.8-26.4-11.5-40.7c0.1-7.2,0.8-14.5,2-21.7c1-6.1,2.4-12.4,5.1-18c2.9-6.2,7.4-11.5,14.1-13.4c1-0.3,1.8-1.4,1.4-2.5
			c-7.3-22.1-11-45.2-10.3-68.5c0.7-21.5,5-43,12.3-63.2c3-8.3,7.4-18.2,16.5-21.2c1.3-0.4,1.8-1.8,1.2-3
			c-6.5-13.9-10.3-29.3-11.6-44.6c-1.3-15.5-0.2-31.7,5.9-46.2c1.4-3.4,3.2-6.7,5.2-9.8c2.1-3.2,5.3-6.2,5.3-10.3
			c0-4-3.3-7.3-5.2-10.5c-2.1-3.5-4-7.2-5.5-11c-6-14.5-7.9-30.6-6-46.2c2.1-17.9,9.5-35.2,21.5-48.7
			C477.1,97.2,474.2,94.3,472.5,96.3L472.5,96.3z"/>
		<ellipse transform="matrix(0.1761 -0.9844 0.9844 0.1761 -378.0138 447.7404)" cx="78.5" cy="449.7" rx="25.4" ry="27.4"/>
	</g>
</g>
</svg>